<?xml version="1.0" encoding="utf-8"?>
<!-- Generator: Adobe Illustrator 25.2.0, SVG Export Plug-In . SVG Version: 6.00 Build 0)  -->
<svg version="1.1" xmlns="http://www.w3.org/2000/svg" xmlns:xlink="http://www.w3.org/1999/xlink" x="0px" y="0px"
	 viewBox="0 0 512 512" style="enable-background:new 0 0 512 512;" xml:space="preserve">
<style type="text/css">
	.st0{display:none;}
	.st1{display:inline;fill:#EDE6F5;}
	.st2{display:inline;}
	.st3{display:inline;fill:#52607E;}
	.st4{display:inline;fill:#F05F90;}
	.st5{fill:#F05F90;}
	.st6{fill:#52607E;}
</style>
<g id="Layer_1" class="st0">
	<path class="st1" d="M473.5,502H38.4C22.7,502,10,489.3,10,473.6V38.4C10,22.7,22.7,10,38.4,10h435.1c15.7,0,28.4,12.7,28.4,28.4
		v435.2C501.9,489.3,489.2,502,473.5,502z"/>
	<path class="st2" d="M473.5,512H38.4C17.2,512,0,494.8,0,473.6V38.4C0,17.2,17.2,0,38.4,0h435.1c21.2,0,38.4,17.2,38.4,38.4v435.2
		C512,494.8,494.7,512,473.5,512z M38.4,20C28.3,20,20,28.3,20,38.4v435.2c0,10.2,8.3,18.4,18.4,18.4h435.1
		c10.2,0,18.4-8.3,18.4-18.4V38.4c0-10.2-8.3-18.4-18.4-18.4H38.4z"/>
	<path class="st2" d="M50.1,232.8c-5.5,0-10-4.5-10-10V69.6c0-16.2,13.2-29.5,29.5-29.5h153.2c5.5,0,10,4.5,10,10s-4.5,10-10,10
		H69.6c-5.2,0-9.5,4.2-9.5,9.5v153.2C60.1,228.3,55.6,232.8,50.1,232.8z"/>
	<path class="st2" d="M461.9,222.7c-5.5,0-10-4.5-10-10V69.6c0-5.2-4.2-9.5-9.5-9.5H289.2c-5.5,0-10-4.5-10-10s4.5-10,10-10h153.2
		c16.2,0,29.5,13.2,29.5,29.5v143.2C471.9,218.3,467.4,222.7,461.9,222.7z"/>
	<path class="st2" d="M442.4,471.9H289.2c-5.5,0-10-4.5-10-10s4.5-10,10-10h153.2c5.2,0,9.5-4.2,9.5-9.5V299.3c0-5.5,4.5-10,10-10
		c5.5,0,10,4.5,10,10v143.2C471.9,458.7,458.6,471.9,442.4,471.9z"/>
	<path class="st2" d="M222.7,471.9H69.6c-16.2,0-29.5-13.2-29.5-29.5V289.2c0-5.5,4.5-10,10-10s10,4.5,10,10v153.2
		c0,5.2,4.2,9.5,9.5,9.5h153.2c5.5,0,10,4.5,10,10S228.3,471.9,222.7,471.9z"/>
	<path class="st2" d="M461.9,264c-0.7,0-1.3-0.1-2-0.2c-0.6-0.1-1.3-0.3-1.9-0.6c-0.6-0.2-1.2-0.6-1.7-0.9c-0.5-0.4-1.1-0.8-1.5-1.2
		c-1.9-1.9-2.9-4.4-2.9-7.1c0-0.7,0.1-1.3,0.2-2c0.1-0.6,0.3-1.3,0.6-1.9c0.2-0.6,0.6-1.2,0.9-1.7c0.4-0.5,0.8-1.1,1.2-1.5
		c0.5-0.5,1-0.9,1.5-1.2c0.6-0.4,1.1-0.7,1.7-0.9c0.6-0.2,1.2-0.4,1.9-0.6c1.3-0.3,2.6-0.3,3.9,0c0.6,0.1,1.3,0.3,1.9,0.6
		c0.6,0.2,1.2,0.6,1.7,0.9c0.5,0.4,1.1,0.8,1.5,1.2c0.5,0.5,0.9,1,1.2,1.5c0.4,0.6,0.7,1.1,0.9,1.7c0.2,0.6,0.4,1.2,0.6,1.9
		c0.1,0.7,0.2,1.3,0.2,2c0,2.6-1.1,5.2-2.9,7.1c-0.5,0.5-1,0.9-1.5,1.2c-0.6,0.4-1.1,0.7-1.7,0.9s-1.2,0.4-1.9,0.6
		C463.2,263.9,462.5,264,461.9,264z"/>
	<path class="st2" d="M50.1,264c-0.6,0-1.3-0.1-1.9-0.2c-0.6-0.1-1.3-0.3-1.9-0.6c-0.6-0.2-1.2-0.6-1.7-0.9
		c-0.6-0.4-1.1-0.8-1.5-1.2s-0.9-1-1.2-1.5c-0.4-0.6-0.7-1.1-0.9-1.7s-0.4-1.2-0.6-1.9c-0.1-0.6-0.2-1.3-0.2-1.9
		c0-0.7,0.1-1.3,0.2-2c0.1-0.6,0.3-1.3,0.6-1.9c0.2-0.6,0.6-1.2,0.9-1.7c0.4-0.5,0.8-1.1,1.2-1.5c2.3-2.3,5.8-3.4,9-2.7
		c0.6,0.1,1.3,0.3,1.9,0.6c0.6,0.2,1.2,0.6,1.7,0.9c0.6,0.4,1.1,0.8,1.5,1.2c0.5,0.5,0.9,1,1.2,1.5c0.4,0.6,0.7,1.1,0.9,1.7
		c0.2,0.6,0.4,1.2,0.6,1.9c0.1,0.7,0.2,1.3,0.2,2c0,0.6-0.1,1.3-0.2,1.9c-0.1,0.6-0.3,1.3-0.6,1.9c-0.2,0.6-0.6,1.2-0.9,1.7
		c-0.4,0.5-0.8,1.1-1.2,1.5c-0.5,0.5-1,0.9-1.5,1.2c-0.5,0.4-1.1,0.7-1.7,0.9c-0.6,0.2-1.2,0.4-1.9,0.6
		C51.4,263.9,50.7,264,50.1,264z"/>
	<path class="st3" d="M224.9,200.9l-38.1-38.1l38.1-38.1L197,96.8l-38.1,38.1l-38.1-38.1l-27.9,27.9l38.1,38.1l-38.1,38.1l27.9,27.9
		l38.1-38.1l38.1,38.1L224.9,200.9z"/>
	<path class="st2" d="M197,238.8c-2.7,0-5.2-1.1-7.1-2.9l-31-31.1l-31.1,31.1c-1.9,1.9-4.4,2.9-7.1,2.9s-5.2-1.1-7.1-2.9L85.8,208
		c-3.9-3.9-3.9-10.2,0-14.1l31.1-31.1l-31.1-31.1c-3.9-3.9-3.9-10.2,0-14.1l27.9-27.9c1.9-1.9,4.4-2.9,7.1-2.9s5.2,1.1,7.1,2.9
		l31.1,31.1l31-31.1c1.9-1.9,4.4-2.9,7.1-2.9s5.2,1.1,7.1,2.9l27.9,27.9c3.9,3.9,3.9,10.2,0,14.1l-31,31.1l31,31.1
		c3.9,3.9,3.9,10.2,0,14.1l-27.9,27.9C202.2,237.8,199.7,238.8,197,238.8z M158.9,180.7c2.7,0,5.2,1.1,7.1,2.9l31,31.1l13.7-13.7
		l-31.1-31.1c-3.9-3.9-3.9-10.2,0-14.1l31.1-31.1L197,110.9L166,142c-1.9,1.9-4.4,2.9-7.1,2.9c-2.6,0-5.2-1.1-7.1-2.9l-31-31.1
		l-13.7,13.7l31.1,31.1c3.9,3.9,3.9,10.2,0,14.1l-31.1,31.1l13.7,13.7l31-31.1C153.7,181.7,156.3,180.7,158.9,180.7z"/>
	<path class="st4" d="M344,87.7c-41.4,0-75,33.6-75,75.1c0,41.5,33.6,75.1,75,75.1s75.1-33.6,75.1-75.1
		C419,121.3,385.4,87.7,344,87.7z M344,197.8c-19.3,0-35-15.7-35-35s15.7-35,35-35c19.3,0,35,15.7,35,35
		C378.9,182.1,363.3,197.8,344,197.8z"/>
	<path class="st2" d="M344,247.9c-46.9,0-85-38.2-85-85.1c0-46.9,38.2-85.1,85-85.1c46.9,0,85,38.2,85,85.1
		C429,209.7,390.9,247.9,344,247.9z M344,97.7c-35.9,0-65,29.2-65,65.1c0,35.9,29.2,65.1,65,65.1s65-29.2,65-65.1
		C409,126.9,379.9,97.7,344,97.7z M344,207.8c-24.8,0-45-20.2-45-45c0-24.8,20.2-45,45-45s45,20.2,45,45
		C388.9,187.6,368.8,207.8,344,207.8z M344,137.8c-13.8,0-25,11.2-25,25c0,13.8,11.2,25,25,25s25-11.2,25-25
		C368.9,149,357.7,137.8,344,137.8z"/>
	<path class="st4" d="M344,87.7c-41.4,0-75,33.6-75,75.1c0,41.5,33.6,75.1,75,75.1s75.1-33.6,75.1-75.1
		C419,121.3,385.4,87.7,344,87.7z M344,197.8c-19.3,0-35-15.7-35-35s15.7-35,35-35c19.3,0,35,15.7,35,35
		C378.9,182.1,363.3,197.8,344,197.8z"/>
	<path class="st2" d="M344,247.9c-46.9,0-85-38.2-85-85.1c0-46.9,38.2-85.1,85-85.1c46.9,0,85,38.2,85,85.1
		C429,209.7,390.9,247.9,344,247.9z M344,97.7c-35.9,0-65,29.2-65,65.1c0,35.9,29.2,65.1,65,65.1s65-29.2,65-65.1
		C409,126.9,379.9,97.7,344,97.7z M344,207.8c-24.8,0-45-20.2-45-45c0-24.8,20.2-45,45-45s45,20.2,45,45
		C388.9,187.6,368.8,207.8,344,207.8z M344,137.8c-13.8,0-25,11.2-25,25c0,13.8,11.2,25,25,25s25-11.2,25-25
		C368.9,149,357.7,137.8,344,137.8z"/>
	<path class="st3" d="M287,311.1l38.1,38.1L287,387.3l27.9,27.9l38.1-38.1l38.1,38.1l27.9-27.9l-38.1-38.1l38.1-38.1l-27.9-27.9
		L353,321.3l-38.1-38.1L287,311.1z"/>
	<path class="st2" d="M391.2,425.2c-2.7,0-5.2-1.1-7.1-2.9L353,391.2l-31,31.1c-1.9,1.9-4.4,2.9-7.1,2.9s-5.2-1.1-7.1-2.9L280,394.4
		c-3.9-3.9-3.9-10.2,0-14.1l31-31.1l-31-31.1c-3.9-3.9-3.9-10.2,0-14.1l27.9-27.9c1.9-1.9,4.4-2.9,7.1-2.9s5.2,1.1,7.1,2.9l31,31.1
		l31.1-31.1c1.9-1.9,4.4-2.9,7.1-2.9s5.2,1.1,7.1,2.9l27.9,27.9c3.9,3.9,3.9,10.2,0,14.1l-31.1,31.1l31.1,31.1
		c3.9,3.9,3.9,10.2,0,14.1l-27.9,27.9C396.4,424.2,393.8,425.2,391.2,425.2z M353,367.1c2.7,0,5.2,1.1,7.1,2.9l31.1,31.1l13.7-13.7
		l-31-31.1c-3.9-3.9-3.9-10.2,0-14.1l31-31.1l-13.7-13.7l-31.1,31.1c-1.9,1.9-4.4,2.9-7.1,2.9s-5.2-1.1-7.1-2.9l-31.1-31.1
		l-13.7,13.7l31,31.1c3.9,3.9,3.9,10.2,0,14.1l-31,31.1l13.7,13.7L346,370C347.8,368.1,350.4,367.1,353,367.1z"/>
	<path class="st4" d="M168,274.1c-41.4,0-75.1,33.6-75.1,75.1c0,41.4,33.6,75.1,75.1,75.1c41.4,0,75-33.6,75-75.1
		C243,307.8,209.4,274.1,168,274.1z M168,384.2c-19.3,0-35-15.7-35-35s15.7-35,35-35c19.3,0,35,15.7,35,35S187.2,384.2,168,384.2z"
		/>
	<path class="st2" d="M168,434.3c-46.9,0-85.1-38.2-85.1-85.1c0-46.9,38.2-85.1,85.1-85.1c46.9,0,85,38.2,85,85.1
		C253,396.1,214.9,434.3,168,434.3z M168,284.1c-35.9,0-65.1,29.2-65.1,65.1s29.2,65.1,65.1,65.1c35.9,0,65-29.2,65-65.1
		C233,313.3,203.8,284.1,168,284.1z M168,394.2c-24.8,0-45-20.2-45-45c0-24.8,20.2-45,45-45c24.8,0,45,20.2,45,45
		C212.9,374,192.8,394.2,168,394.2z M168,324.2c-13.8,0-25,11.2-25,25c0,13.8,11.2,25,25,25c13.8,0,25-11.2,25-25
		C192.9,335.4,181.7,324.2,168,324.2z"/>
</g>
<g id="zero">
	<g>
		<path class="st5" d="M256,49.6C142,49.6,49.6,142,49.6,256c0,114,92.4,206.4,206.3,206.4S462.4,370,462.4,256
			C462.3,142,370,49.6,256,49.6z M256,352.1c-53,0-96.1-43.1-96.1-96.1s43.1-96.1,96.1-96.1c53,0,96.1,43.1,96.1,96.1
			C352.1,309,309,352.1,256,352.1z"/>
		<path d="M256,489.9C127.1,489.9,22.2,385,22.2,256C22.2,127,127.1,22.1,256,22.1C385,22.1,489.8,127,489.8,256
			C489.8,385,384.9,489.9,256,489.9z M256,77.1c-98.6,0-178.9,80.2-178.9,178.9c0,98.6,80.2,178.9,178.9,178.9
			S434.9,354.6,434.9,256C434.9,157.4,354.6,77.1,256,77.1z M256,379.6c-68.2,0-123.6-55.5-123.6-123.6
			c0-68.2,55.5-123.6,123.6-123.6S379.6,187.8,379.6,256C379.6,324.2,324.2,379.6,256,379.6z M256,187.4
			c-37.8,0-68.6,30.8-68.6,68.6c0,37.8,30.8,68.6,68.6,68.6s68.6-30.8,68.6-68.6C324.6,218.2,293.8,187.4,256,187.4z"/>
	</g>
</g>
<g id="x" class="st0">
	<g class="st2">
		<path class="st6" d="M458.6,373l-117-117l117-117L373,53.4l-117,117l-117-117L53.4,139l117,117l-117,117l85.6,85.6l117-117
			l117,117L458.6,373z"/>
		<path d="M373,489.3c-8.1,0-15.9-3.2-21.7-9L256,385l-95.3,95.3c-5.8,5.8-13.6,9-21.7,9s-15.9-3.2-21.7-9l-85.6-85.6
			c-12-12-12-31.4,0-43.4L127,256l-95.3-95.3c-12-12-12-31.4,0-43.4l85.6-85.6c5.8-5.8,13.6-9,21.7-9s15.9,3.2,21.7,9L256,127
			l95.3-95.3c5.8-5.8,13.6-9,21.7-9s15.9,3.2,21.7,9l85.6,85.6c12,12,12,31.4,0,43.4L385,256l95.3,95.3c12,12,12,31.4,0,43.4
			l-85.6,85.6C389,486.1,381.2,489.3,373,489.3z M256,310.9c8.1,0,16,3.2,21.7,9l95.3,95.3l42.2-42.2l-95.3-95.3
			c-12-12-12-31.4,0-43.4l95.3-95.3L373,96.8l-95.3,95.3c-5.8,5.8-13.6,9-21.7,9c-8.1,0-15.9-3.2-21.7-9L139,96.8L96.8,139
			l95.3,95.3c12,12,12,31.4,0,43.4L96.8,373l42.2,42.2l95.3-95.3C240,314.1,247.9,310.9,256,310.9z"/>
	</g>
</g>
</svg>
